<svg viewBox="0 0 845 860" xmlns="http://www.w3.org/2000/svg">
<g transform="translate(0 860) scale(.1 -.1)">
<path d="M73 8363 c17 -629 132 -1286 322 -1843 304 -888 756 -1519 1389
-1938 127 -85 364 -212 457 -247 l47 -17 83 36 c109 47 279 142 404 226 460
309 858 782 1118 1330 327 688 536 1605 554 2428 l6 262 -2193 0 -2193 0 6
-237z m1562 -848 c184 -35 347 -161 425 -328 22 -47 40 -88 40 -91 0 -3 -286
-6 -636 -6 l-635 0 6 23 c33 109 142 251 243 316 58 37 166 78 235 90 84 14
239 12 322 -4z m1680 0 c181 -34 344 -154 416 -305 20 -41 40 -85 43 -97 l7
-23 -636 0 -636 0 6 23 c4 12 22 55 40 95 74 159 230 273 426 311 72 14 251
12 334 -4z m-170 -1597 c-19 -61 -93 -184 -147 -243 -153 -167 -380 -262 -651
-273 -219 -8 -411 33 -572 122 -128 71 -260 224 -314 364 l-21 52 856 0 855 0
-6 -22z"/>
<path d="M5780 8215 l0 -385 935 0 935 0 0 -915 0 -915 400 0 400 0 0 1300 0
1300 -1335 0 -1335 0 0 -385z"/>
<path d="M3780 4578 c0 -767 214 -1756 540 -2503 335 -767 842 -1407 1420
-1794 151 -101 373 -221 409 -221 45 0 305 148 476 269 403 288 780 707 1076
1198 90 149 241 451 307 614 203 500 356 1109 422 1680 17 148 20 238 20 558
l0 381 -2335 0 -2335 0 0 -182z m2160 -1048 c0 -24 -46 -121 -87 -182 -160
-242 -537 -342 -873 -232 -187 61 -313 180 -384 362 l-25 62 685 0 c432 0 684
-4 684 -10z m1795 -12 c-4 -13 -28 -62 -52 -111 -79 -153 -231 -267 -418 -314
-103 -25 -305 -23 -408 5 -110 30 -211 86 -282 157 -68 67 -104 124 -140 220
l-25 65 666 0 665 0 -6 -22z m-1369 -1653 c115 -21 238 -64 333 -117 124 -71
280 -234 317 -330 6 -17 -40 -18 -871 -18 l-876 0 32 60 c106 198 348 354 631
405 103 19 326 18 434 0z"/>
<path d="M0 1495 l0 -1495 1370 0 1370 0 0 415 0 415 -965 0 -965 0 0 1080 0
1080 -405 0 -405 0 0 -1495z"/>
</g>
</svg>
