<svg xmlns="http://www.w3.org/2000/svg" viewBox="0 0 1254 1254">
<g transform="translate(0 1254) scale(0.1 -0.1)">
<path d="M0 6270 l0 -6270 6270 0 6270 0 0 6270 0 6270 -6270 0 -6270 0 0
-6270z m6230 4945 c0 -467 -34 -875 -116 -1385 -114 -709 -287 -1274 -553
-1810 -89 -177 -146 -277 -249 -435 -400 -612 -902 -1064 -1535 -1382 l-109
-54 -126 67 c-329 173 -550 325 -807 555 -395 352 -708 766 -963 1276 -357
712 -561 1548 -652 2673 -6 69 -13 266 -17 438 l-6 312 2566 0 2567 0 0 -255z
m5230 -1450 l0 -1705 -497 2 -498 3 -3 1208 -2 1207 -1260 0 -1260 0 0 495 0
495 1760 0 1760 0 0 -1705z m-103 -3682 c-8 -447 -40 -801 -118 -1283 -207
-1296 -654 -2275 -1364 -2986 -299 -300 -624 -535 -987 -715 l-108 -53 -124
62 c-352 178 -645 387 -937 669 -640 620 -1090 1476 -1318 2508 -125 565 -191
1155 -207 1838 l-6 287 2587 0 2588 0 -6 -327z m-9277 -2543 l0 -1450 1260 0
1260 0 0 -505 0 -505 -1760 2 c-968 2 -1760 6 -1760 11 0 4 0 882 0 1952 l0
1945 500 0 500 0 0 -1450z"/>
<path d="M2532 10229 c-234 -30 -437 -169 -542 -369 -41 -80 -70 -178 -70
-242 l0 -38 706 0 707 0 -6 58 c-32 297 -290 547 -610 591 -86 12 -94 12 -185
0z"/>
<path d="M4620 10231 c-162 -23 -300 -91 -416 -206 -68 -67 -89 -96 -127 -175
-45 -95 -67 -171 -67 -235 l0 -35 706 0 707 0 -7 58 c-21 186 -135 366 -304
479 -134 88 -337 136 -492 114z"/>
<path d="M2634 8013 c3 -26 19 -76 35 -110 136 -291 486 -500 889 -532 554
-45 1069 248 1157 657 l7 32 -1048 0 -1047 0 7 -47z"/>
<path d="M7010 5074 c0 -102 59 -250 139 -351 86 -107 252 -205 405 -238 94
-21 287 -16 379 9 197 54 373 202 452 379 27 62 60 210 51 232 -5 13 -100 15
-716 15 l-710 0 0 -46z"/>
<path d="M9147 5113 c-12 -11 -8 -76 8 -138 48 -185 175 -340 350 -428 187
-93 449 -102 647 -22 226 92 394 307 415 530 l6 65 -710 0 c-390 0 -713 -3
-716 -7z"/>
<path d="M8579 3174 c-284 -51 -567 -216 -699 -408 -64 -94 -120 -244 -120
-323 l0 -33 1028 2 1027 3 -3 30 c-32 337 -364 634 -811 725 -117 24 -304 26
-422 4z"/>
</g>
</svg>
